<?xml version="1.0" encoding="utf-8"?>
<!-- Generator: Adobe Illustrator 16.0.4, SVG Export Plug-In . SVG Version: 6.00 Build 0)  -->
<!DOCTYPE svg PUBLIC "-//W3C//DTD SVG 1.1//EN" "http://www.w3.org/Graphics/SVG/1.1/DTD/svg11.dtd">
<svg version="1.1" id="Layer_1" xmlns="http://www.w3.org/2000/svg" xmlns:xlink="http://www.w3.org/1999/xlink" x="0px" y="0px"
	 width="270.729px" height="97.238px" viewBox="0 0 270.729 97.238" enable-background="new 0 0 270.729 97.238"
	 xml:space="preserve">
<polygon fill="#F2F2F2" points="169.767,57.234 144.8,81.419 133.515,91.4 116.434,80.291 97.683,59.457 79.351,42.79 
	185.184,42.79 "/>
<g>
	<g>
		<path fill="#88181A" d="M183.914,44.734l-2.061,0.101c-4.906,0.559-9.107,3.329-11.564,7.27l-21.995,25.932
			c-0.752-7.811-7.459-13.916-15.629-13.916c-8.319,0-15.112,6.348-15.646,14.363l-24.501-28.78c-2.48-2.641-6-4.967-11.772-4.967
			c-6.811,0-10.729,4.366-10.729,4.366c-2.92,2.792-4.74,6.688-4.74,11c0,8.49,7.03,15.377,15.701,15.377
			c8.305,0,15.084-6.312,15.646-14.312l23.851,28.006c2.879,3.477,7.271,5.699,12.191,5.699c5.476,0,8.603-1.535,14.137-8.354l0,0
			l21.25-25.051c0.71,7.854,7.433,14.012,15.632,14.012c8.674,0,15.703-6.887,15.703-15.377c0-4.312-1.818-8.207-4.741-11
			C194.642,49.101,190.767,44.734,183.914,44.734z"/>
		<path fill="#F2F2F2" d="M79.382,44.8c0.442-0.037,0.894-0.062,1.362-0.062c5.773,0,9.292,2.326,11.772,4.966l24.501,28.779
			c0.535-8.021,7.327-14.363,15.646-14.363c8.172,0,14.875,6.105,15.627,13.916l21.996-25.932c2.459-3.938,6.66-6.708,11.564-7.27
			l2.061-0.101c0.492,0,0.962,0.026,1.422,0.069c-0.26-0.641-0.395-1.335-0.399-2.032c-0.336-0.02-0.67-0.037-1.021-0.037h-0.049
			l-0.049,0.002l-2.062,0.101l-0.062,0.004l-0.063,0.008c-5.366,0.609-10.082,3.549-12.955,8.068L149.36,73.684
			c-2.435-6.814-8.998-11.564-16.694-11.564c-7.763,0-14.453,4.979-16.792,11.937L94.039,48.409l-0.032-0.037l-0.033-0.035
			c-3.538-3.766-7.865-5.597-13.23-5.597c-0.498,0-0.976,0.024-1.446,0.062C79.442,43.453,79.47,44.135,79.382,44.8z"/>
		<path fill="#F2F2F2" d="M197.201,51.555c-0.112,0-0.221-0.012-0.33-0.018c-0.043,0.022-0.075,0.06-0.118,0.08
			c1.653,2.432,2.631,5.342,2.631,8.481c0,8.489-7.028,15.379-15.702,15.379c-8.199,0-14.923-6.157-15.632-14.015L146.8,86.518
			c-5.534,6.815-8.661,8.354-14.136,8.354c-4.922,0-9.312-2.227-12.191-5.699L96.622,61.167
			c-0.562,7.994-7.343,14.312-15.646,14.312c-8.67,0-15.701-6.89-15.701-15.379c0-2.949,0.867-5.692,2.339-8.033
			c-0.711-0.164-1.316-0.471-1.817-0.872c-1.633,2.666-2.521,5.713-2.521,8.905c0,9.58,7.939,17.379,17.701,17.379
			c7.737,0,14.425-4.972,16.78-11.896L118.95,90.47c3.365,4.062,8.37,6.401,13.715,6.401c6.365,0,10.03-2.125,15.688-9.094
			l18.609-21.939c2.403,6.859,8.979,11.641,16.718,11.641c9.762,0,17.7-7.795,17.7-17.377c0-3.16-0.879-6.172-2.483-8.812
			C198.392,51.458,197.828,51.555,197.201,51.555z"/>
	</g>
</g>
<g>
	<g enable-background="new    ">
		<path d="M3.332,8.79h25.672l0.244,7.386h-1.086c-0.532-2.32-1.208-3.831-2.029-4.532c-0.82-0.7-2.546-1.05-5.176-1.05h-2.527
			v22.244c0,1.675,0.273,2.713,0.82,3.114c0.546,0.401,1.744,0.665,3.591,0.792v0.807H9.606v-0.807
			c1.921-0.141,3.118-0.443,3.591-0.908s0.709-1.633,0.709-3.506V10.594h-2.549c-2.513,0-4.223,0.347-5.132,1.04
			c-0.909,0.693-1.593,2.207-2.051,4.542H3.066L3.332,8.79z"/>
		<path d="M30.689,36.743c1.67-0.169,2.752-0.454,3.248-0.855c0.495-0.401,0.743-1.417,0.743-3.05V13.502
			c0-1.542-0.244-2.55-0.731-3.024c-0.488-0.474-1.574-0.768-3.259-0.881V8.79h24.121l0.155,6.219h-1.153
			c-0.385-1.916-0.961-3.155-1.729-3.718c-0.769-0.563-2.483-0.845-5.143-0.845h-6.181c-0.667,0-1.079,0.103-1.234,0.308
			c-0.156,0.205-0.233,0.591-0.233,1.157v9.7h7.005c1.936,0,3.17-0.274,3.702-0.823c0.532-0.549,0.961-1.662,1.286-3.337h1.064
			v10.04h-1.064c-0.34-1.684-0.776-2.798-1.308-3.343c-0.532-0.545-1.759-0.817-3.68-0.817h-7.005V34.09
			c0,0.863,0.285,1.373,0.854,1.528c0.57,0.156,2.276,0.234,5.118,0.234c3.078,0,5.35-0.322,6.815-0.966s2.782-2.204,3.95-4.68
			h1.264L55.23,37.55H30.689V36.743z"/>
		<path d="M58.423,36.743c1.877-0.184,3.082-0.59,3.614-1.219s0.798-2.089,0.798-4.38V11.993l-0.621-0.7
			c-0.665-0.749-1.23-1.212-1.696-1.389c-0.466-0.177-1.164-0.279-2.095-0.308V8.79h7.748l17.526,20.798V15.142
			c0-2.376-0.37-3.922-1.108-4.639c-0.488-0.464-1.567-0.766-3.237-0.907V8.79h10.664v0.807c-1.729,0.169-2.882,0.573-3.458,1.209
			c-0.577,0.637-0.865,2.095-0.865,4.373v22.88h-0.776L64.83,14.223v16.921c0,2.375,0.362,3.923,1.086,4.644
			c0.473,0.467,1.529,0.785,3.17,0.954v0.807H58.423V36.743z"/>
		<path d="M93.628,28.805c0.768,1.953,1.667,3.509,2.701,4.669c1.8,2.023,4.036,3.035,6.707,3.035c1.446,0,2.697-0.438,3.752-1.316
			s1.583-2.101,1.583-3.672c0-1.415-0.531-2.646-1.593-3.693c-0.693-0.665-2.154-1.662-4.381-2.993l-3.873-2.313
			c-1.166-0.708-2.096-1.422-2.791-2.144c-1.286-1.373-1.929-2.887-1.929-4.542c0-2.193,0.761-4.019,2.284-5.476
			c1.522-1.458,3.54-2.187,6.052-2.187c1.034,0,2.28,0.244,3.735,0.732s2.287,0.732,2.494,0.732c0.562,0,0.95-0.127,1.164-0.382
			c0.214-0.254,0.38-0.615,0.499-1.083h0.931l0.998,9.254h-1.086c-0.739-2.788-1.925-4.733-3.558-5.837
			c-1.633-1.104-3.248-1.656-4.844-1.656c-1.242,0-2.324,0.35-3.248,1.051c-0.924,0.7-1.385,1.673-1.385,2.918
			c0,1.118,0.354,2.073,1.062,2.865c0.708,0.807,1.808,1.648,3.299,2.526l3.988,2.356c2.495,1.472,4.255,2.823,5.279,4.054
			c1.009,1.246,1.514,2.717,1.514,4.415c0,2.278-0.898,4.181-2.693,5.709c-1.796,1.528-4.09,2.292-6.884,2.292
			c-1.404,0-2.871-0.255-4.401-0.764c-1.529-0.509-2.405-0.764-2.627-0.764c-0.532,0-0.891,0.156-1.075,0.467
			c-0.185,0.312-0.307,0.644-0.366,0.998h-0.998l-1.353-9.254H93.628z"/>
		<path d="M116.684,36.743c1.848-0.126,3.044-0.39,3.592-0.792c0.546-0.401,0.82-1.439,0.82-3.114V13.502
			c0-1.599-0.274-2.628-0.82-3.088c-0.547-0.459-1.744-0.732-3.592-0.817V8.79h13.435v0.807c-1.848,0.085-3.045,0.357-3.592,0.817
			c-0.547,0.46-0.82,1.49-0.82,3.088v19.336c0,1.675,0.273,2.713,0.82,3.114c0.547,0.401,1.744,0.665,3.592,0.792v0.807h-13.435
			V36.743z"/>
		<path d="M131.959,8.79h25.673l0.243,7.386h-1.086c-0.532-2.32-1.208-3.831-2.028-4.532c-0.82-0.7-2.547-1.05-5.177-1.05h-2.527
			v22.244c0,1.675,0.272,2.713,0.82,3.114c0.546,0.401,1.743,0.665,3.591,0.792v0.807h-13.234v-0.807
			c1.921-0.141,3.117-0.443,3.591-0.908s0.71-1.633,0.71-3.506V10.594h-2.55c-2.513,0-4.223,0.347-5.132,1.04
			c-0.909,0.693-1.593,2.207-2.051,4.542h-1.108L131.959,8.79z"/>
		<path d="M159.316,36.743c1.744-0.155,2.83-0.479,3.259-0.972s0.643-1.64,0.643-3.443V13.502c0-1.528-0.24-2.529-0.72-3.003
			c-0.48-0.474-1.541-0.774-3.182-0.902V8.79h12.57c2.616,0,4.796,0.318,6.54,0.954c3.311,1.201,4.966,3.413,4.966,6.634
			c0,2.162-0.735,3.822-2.206,4.981s-3.469,1.921-5.996,2.289l9.355,11.032c0.576,0.674,1.152,1.166,1.729,1.474
			c0.576,0.309,1.315,0.505,2.217,0.589v0.807h-7.312l-11.356-13.393l-1.993,0.106v8.567c0,1.608,0.256,2.627,0.766,3.057
			c0.51,0.43,1.621,0.716,3.336,0.856v0.807h-12.614V36.743z M174.835,21.673c2.409-0.946,3.613-2.726,3.613-5.338
			c0-2.514-1.078-4.23-3.236-5.148c-1.152-0.494-2.683-0.742-4.589-0.742c-1.286,0-2.073,0.089-2.361,0.265s-0.433,0.59-0.433,1.239
			v10.7C171.095,22.536,173.43,22.211,174.835,21.673z"/>
		<path d="M195.009,12.016c2.793-2.561,6.23-3.842,10.309-3.842c4.094,0,7.538,1.288,10.332,3.863
			c3.029,2.788,4.544,6.502,4.544,11.143c0,4.712-1.566,8.461-4.7,11.249c-2.808,2.491-6.199,3.736-10.176,3.736
			c-4.256,0-7.789-1.38-10.597-4.139c-2.853-2.815-4.278-6.431-4.278-10.846C190.442,18.539,191.964,14.818,195.009,12.016z
			 M198.404,33.315c1.879,2.186,4.188,3.279,6.925,3.279c2.678,0,4.968-1.064,6.869-3.194c1.901-2.129,2.852-5.536,2.852-10.22
			c0-4.74-0.961-8.165-2.885-10.273s-4.203-3.163-6.836-3.163c-2.723,0-5.027,1.093-6.914,3.279s-2.83,5.571-2.83,10.156
			C195.585,27.751,196.524,31.129,198.404,33.315z"/>
		<path d="M222.387,36.743c1.877-0.184,3.082-0.59,3.614-1.219s0.798-2.089,0.798-4.38V11.993l-0.621-0.7
			c-0.664-0.749-1.23-1.212-1.695-1.389c-0.466-0.177-1.164-0.279-2.096-0.308V8.79h7.748l17.525,20.798V15.142
			c0-2.376-0.369-3.922-1.107-4.639c-0.488-0.464-1.567-0.766-3.237-0.907V8.79h10.663v0.807c-1.729,0.169-2.882,0.573-3.458,1.209
			c-0.577,0.637-0.864,2.095-0.864,4.373v22.88h-0.776l-20.085-23.835v16.921c0,2.375,0.361,3.923,1.086,4.644
			c0.473,0.467,1.529,0.785,3.17,0.954v0.807h-10.664V36.743z"/>
	</g>
	<path d="M261.788,11.138c0.769-0.73,1.689-1.101,2.776-1.101c1.086,0,2.01,0.367,2.773,1.101c0.767,0.732,1.146,1.62,1.146,2.661
		c0,1.04-0.383,1.928-1.146,2.662c-0.768,0.732-1.689,1.102-2.773,1.102c-1.087,0-2.011-0.367-2.776-1.102
		c-0.765-0.733-1.146-1.621-1.146-2.662C260.644,12.76,261.024,11.872,261.788,11.138z M262.091,16.171
		c0.686,0.656,1.512,0.984,2.478,0.984c0.967,0,1.793-0.327,2.475-0.984c0.688-0.656,1.026-1.445,1.026-2.371
		c0-0.927-0.343-1.718-1.026-2.373s-1.508-0.979-2.475-0.979c-0.966,0-1.79,0.328-2.478,0.979c-0.687,0.656-1.021,1.446-1.021,2.373
		C261.067,14.725,261.406,15.515,262.091,16.171z M262.341,15.711c0.31,0,0.517-0.017,0.619-0.055
		c0.104-0.038,0.159-0.146,0.159-0.313v-3.188c0-0.15-0.055-0.249-0.168-0.295c-0.105-0.045-0.312-0.068-0.61-0.068v-0.257h2.25
		c0.569,0,1.03,0.1,1.388,0.3c0.354,0.2,0.528,0.476,0.528,0.827c0,0.292-0.144,0.536-0.427,0.729
		c-0.282,0.192-0.659,0.314-1.131,0.361v0.037c0.558,0.17,0.915,0.534,1.072,1.087c0.159,0.557,0.291,0.831,0.398,0.831
		c0.138,0,0.233-0.07,0.295-0.212c0.039-0.097,0.073-0.289,0.105-0.578h0.277c-0.024,0.321-0.08,0.559-0.166,0.711
		c-0.155,0.277-0.427,0.418-0.808,0.418c-0.356,0-0.603-0.112-0.725-0.337c-0.079-0.143-0.13-0.423-0.157-0.844
		c-0.028-0.438-0.131-0.713-0.309-0.839c-0.174-0.124-0.525-0.185-1.055-0.17v1.491c0,0.17,0.071,0.279,0.218,0.324
		c0.092,0.032,0.275,0.048,0.562,0.042v0.257h-2.323v-0.261H262.341L262.341,15.711z M265.091,13.48
		c0.318-0.127,0.479-0.401,0.479-0.826c0-0.273-0.086-0.487-0.254-0.638c-0.169-0.15-0.438-0.226-0.809-0.226
		c-0.188,0-0.34,0.024-0.45,0.072c-0.112,0.048-0.17,0.146-0.17,0.296v1.438C264.494,13.597,264.896,13.556,265.091,13.48z"/>
</g>
</svg>
